<?xml version="1.0" standalone="no"?>
<!DOCTYPE svg PUBLIC "-//W3C//DTD SVG 1.1//EN" "http://www.w3.org/Graphics/SVG/1.1/DTD/svg11.dtd" >
<svg xmlns="http://www.w3.org/2000/svg">
<metadata>
Created by FontForge 20120731 at Fri Jun  2 11:39:25 2017
 By admin
</metadata>
<defs>
<font id="iconfont" horiz-adv-x="1024" >
  <font-face 
    font-family="iconfont"
    font-weight="500"
    font-stretch="normal"
    units-per-em="1024"
    panose-1="2 0 6 3 0 0 0 0 0 0"
    ascent="896"
    descent="-128"
    x-height="792"
    bbox="0 -224 1024 896.256"
    underline-thickness="0"
    underline-position="0"
    unicode-range="U+0078-F003B"
  />
<missing-glyph 
 />
    <glyph glyph-name=".notdef" 
 />
    <glyph glyph-name=".null" horiz-adv-x="0" 
 />
    <glyph glyph-name="nonmarkingreturn" horiz-adv-x="341" 
 />
    <glyph glyph-name="x" unicode="x" horiz-adv-x="1001" 
d="M281 543q-27 -1 -53 -1h-83q-18 0 -36.5 -6t-32.5 -18.5t-23 -32t-9 -45.5v-76h912v41q0 16 -0.5 30t-0.5 18q0 13 -5 29t-17 29.5t-31.5 22.5t-49.5 9h-133v-97h-438v97zM955 310v-52q0 -23 0.5 -52t0.5 -58t-10.5 -47.5t-26 -30t-33 -16t-31.5 -4.5q-14 -1 -29.5 -0.5
t-29.5 0.5h-32l-45 128h-439l-44 -128h-29h-34q-20 0 -45 1q-25 0 -41 9.5t-25.5 23t-13.5 29.5t-4 30v167h911zM163 247q-12 0 -21 -8.5t-9 -21.5t9 -21.5t21 -8.5q13 0 22 8.5t9 21.5t-9 21.5t-22 8.5zM316 123q-8 -26 -14 -48q-5 -19 -10.5 -37t-7.5 -25t-3 -15t1 -14.5
t9.5 -10.5t21.5 -4h37h67h81h80h64h36q23 0 34 12t2 38q-5 13 -9.5 30.5t-9.5 34.5q-5 19 -11 39h-368zM336 498v228q0 11 2.5 23t10 21.5t20.5 15.5t34 6h188q31 0 51.5 -14.5t20.5 -52.5v-227h-327z" />
    <glyph glyph-name="6" unicode="&#xf003b;" 
d="M187 45h-105q-7 0 -12 5.5t-5 13.5q7 128 40 175q16 21 51 34.5t69.5 18t68.5 16.5t48 31q6 7 6 36q0 8 -6 13q-27 24 -43.5 63t-17.5 80q0 35 2 61.5t10 53t21 43t36.5 27t55.5 10.5q81 0 108 -70q-32 -13 -55 -36q-38 -38 -51 -104q-10 -46 -9 -116q1 -55 23 -108
q18 -42 47 -73q-7 -4 -17 -7q-17 -6 -65 -16q-31 -6 -48 -10.5t-43.5 -13.5t-45 -23t-32.5 -34q-19 -26 -31 -70zM959 -106q0 -8 -5.5 -14t-13.5 -6h-702q-8 0 -14 6t-5 14q8 138 44 190q16 24 54.5 38t75.5 19.5t74.5 18t52.5 33.5q6 8 6 40q0 8 -6 14q-29 26 -47 68.5
t-19 86.5q0 39 2.5 67.5t10.5 57t22.5 46.5t40 29.5t60.5 11.5q34 0 58.5 -11t39 -29t23 -46.5t11 -57t2.5 -66.5q0 -45 -18 -88t-48 -69q-6 -6 -6 -14q-1 -31 5 -40q16 -21 52.5 -34t73.5 -18.5t75 -19.5t56 -37q38 -50 45 -190v0z" />
    <glyph glyph-name="manager" unicode="&#xe629;" horiz-adv-x="1025" 
d="M340 245q20 -28 46.5 -46.5t52 -26t42 -10t30.5 -2.5h2q14 0 30.5 2.5t42 10t52 26t46.5 46.5q25 35 55 113q51 61 38 114q-6 27 -27 45q10 79 -10 135q-34 91 -119 127q-50 21 -103 21h-3h-3h-3h-3q-53 0 -103 -21q-85 -36 -119 -127q-20 -56 -10 -135q-21 -18 -27 -45
q-13 -53 38 -114q30 -78 55 -113zM321 472q21 8 36 -33q-19 58 -22 113q44 61 90 69q3 -4 10 -11t31 -24.5t52 -31t73.5 -24t94.5 -10.5q-6 -41 -19 -81q15 41 36 33q4 -1 7 -4.5t5 -10t0 -15.5t-9.5 -22.5t-22.5 -28.5q-28 -77 -51 -108.5t-56 -45t-63 -13.5h-1h-1
q-30 0 -63 13.5t-56 44.5q-10 15 -23 42t-21 47l-7 20q-15 15 -22.5 28.5t-9.5 22.5t0 15.5t5 10t7 4.5zM577 96l-30 32h-70l-30 -32q17 -37 44 -51l-44 -112q33 -47 65 -59q14 6 30.5 20.5t25.5 26t9 12.5l-44 112q12 7 23 19.5t16 21.5t5 10zM975 10q-24 31 -98.5 60
t-133 43.5t-62.5 14.5q9 -51 -6 -100.5t-38.5 -81.5t-56.5 -61t-46.5 -37.5t-21.5 -13.5v0q-8 5 -21.5 13.5t-46.5 37.5t-56.5 61t-38.5 81.5t-6 100.5q-10 -2 -26.5 -5.5t-60.5 -16t-81 -25.5t-74 -32.5t-52 -38.5q-60 -77 -46 -176q3 -25 14.5 -38t45.5 -20h898
q34 7 45.5 20t14.5 38q14 99 -46 176z" />
    <glyph glyph-name="jiudian" unicode="&#xe611;" 
d="M931 -124v520h-260v-520h260zM989 -182h-375v636h375v-636zM845 252v57h-58v-57h58zM874 223h-116v115h116v-115zM845 78v58h-58v-58h58zM874 49h-116v116h116v-116zM614 -124v809h-520v-809h520zM671 -182h-635v924h635v-924zM296 396v202h-115v-202h115zM325 367h-173
v260h173v-260zM527 396v202h-115v-202h115zM556 367h-173v260h173v-260zM296 49v203h-115v-203h115zM325 21h-173v259h173v-259zM527 49v203h-115v-203h115zM556 21h-173v259h173v-259z" />
    <glyph glyph-name="dianhua" unicode="&#xe601;" 
d="M744 -147v0h-4q-81 4 -184 75.5t-204 194.5l-51 61q-101 123 -151.5 236.5t-38.5 191.5q9 52 71 94t113 42q35 0 46 -25q28 -49 53.5 -116t25.5 -95v-3l-1 -2q-8 -21 -41 -40q-17 -9 -24.5 -17t-8.5 -23q-2 -28 95 -147l38 -46q97 -115 125 -119q15 -2 24.5 3.5
t22.5 20.5q25 28 48 31h2h3q28 -6 89.5 -44.5t106.5 -76.5q24 -16 11 -57q-14 -46 -65 -92.5t-101 -46.5v0z" />
    <glyph glyph-name="e617" unicode="&#xe600;" 
d="M387 810h-311q-31 0 -52.5 -21.5t-21.5 -52.5v-311q0 -30 21.5 -52t52.5 -22h311q30 0 52 22t22 52v311q0 31 -22 52.5t-52 21.5zM402 425q0 -6 -4.5 -10.5t-10.5 -4.5h-311q-6 0 -10.5 4.5t-4.5 10.5v311q0 6 4.5 10.5t10.5 4.5h311q6 0 10.5 -4.5t4.5 -10.5v-311z
M387 248h-311q-31 0 -52.5 -22t-21.5 -52v-311q0 -31 21.5 -52.5t52.5 -21.5h311q30 0 52 21.5t22 52.5v311q0 30 -22 52t-52 22zM402 -137q0 -6 -4.5 -10.5t-10.5 -4.5h-311q-6 0 -10.5 4.5t-4.5 10.5v311q0 6 4.5 10.5t10.5 4.5h311q6 0 10.5 -4.5t4.5 -10.5v-311z
M949 810h-311q-30 0 -52 -21.5t-22 -52.5v-311q0 -30 22 -52t52 -22h311q31 0 52.5 22t21.5 52v311q0 31 -21.5 52.5t-52.5 21.5zM964 425q0 -6 -4.5 -10.5t-10.5 -4.5h-311q-6 0 -10.5 4.5t-4.5 10.5v311q0 6 4.5 10.5t10.5 4.5h311q6 0 10.5 -4.5t4.5 -10.5v-311zM949 248
h-311q-30 0 -52 -22t-22 -52v-311q0 -31 22 -52.5t52 -21.5h311q31 0 52.5 21.5t21.5 52.5v311q0 30 -21.5 52t-52.5 22zM964 -137q0 -6 -4.5 -10.5t-10.5 -4.5h-311q-6 0 -10.5 4.5t-4.5 10.5v311q0 6 4.5 10.5t10.5 4.5h311q6 0 10.5 -4.5t4.5 -10.5v-311z" />
    <glyph glyph-name="xiaoxi" unicode="&#xe649;" 
d="M512 -84h-85l-235 -128v235q-90 63 -141 150.5t-51 190.5q0 91 40.5 174t109 143t163.5 95.5t199 35.5t199 -35.5t163.5 -95.5t109 -143t40.5 -174t-40.5 -174t-109 -143t-163.5 -95.5t-199 -35.5v0zM512 748q-122 0 -225 -51.5t-163 -140t-60 -192.5q0 -96 52 -181.5
t140 -138.5v-142l171 78h85q122 0 225 51.5t163 140t60 192.5t-60 192.5t-163 140t-225 51.5v0zM768 300q-27 0 -45.5 19t-18.5 45.5t18.5 45t45.5 18.5t45.5 -18.5t18.5 -45t-18.5 -45.5t-45.5 -19v0zM512 300q-27 0 -45.5 19t-18.5 45.5t18.5 45t45.5 18.5t45.5 -18.5
t18.5 -45t-18.5 -45.5t-45.5 -19v0zM256 300q-27 0 -45.5 19t-18.5 45.5t18.5 45t45.5 18.5t45.5 -18.5t18.5 -45.5t-18.5 -45.5t-45.5 -18.5v0z" />
    <glyph glyph-name="gengduo" unicode="&#xe633;" 
d="M283 -191q-7 0 -12 5t-5 12.5t5 12.5l446 446l-446 447q-5 5 -5 12t5 12t12 5t12 -5l458 -459q5 -5 5 -12t-5 -12l-458 -459q-5 -5 -12 -5z" />
    <glyph glyph-name="peisong" unicode="&#xe66d;" 
d="M285 284q6 -7 15 -9v0q3 -1 5 -1q14 -1 23 8l108 126q7 8 6.5 18.5t-9 17t-19 5.5t-17.5 -8l-92 -107l-41 41q-7 8 -17.5 9.5t-19 -5t-10 -16.5t5.5 -18l62 -61v0zM674 205q-48 0 -82 -33t-34 -79t34 -79t81.5 -33t81.5 33t34 79t-34 79t-81 33v0zM674 40q-23 0 -39 15.5
t-16 37.5t16 37.5t38.5 15.5t38.5 -15.5t16 -37.5t-16 -37.5t-38 -15.5v0zM866 337q-1 2 -2 3l-72 90q-24 30 -66.5 50t-81.5 20h-76v22q0 26 -19 44.5t-45 18.5h-375q-13 0 -21.5 -9t-8.5 -21v-432v-1v0v-0.5v-0.5q0 -12 8.5 -21t21.5 -9h44q13 0 22 9t9 21t-9 21t-22 9
h-13v374h344q3 0 3 -3v-182q0 -26 19 -44.5t46 -18.5l289 1q3 0 3 -3v-133q0 -3 -3 -3h-34q-13 0 -22 -8.5t-9 -21t9 -21t22 -8.5h34q27 0 45.5 18t18.5 44v133q0 24 -17 42t-42 20v0zM572 337q-4 0 -4 3v101h76q25 0 54.5 -14.5t44.5 -33.5l46 -56h-217v0zM333 205
q-48 0 -81.5 -33t-33.5 -79t33.5 -79t81.5 -33t82 33t34 79t-34 79t-82 33v0zM333 40q-22 0 -38 15.5t-16 37.5t16 37.5t38.5 15.5t38.5 -15.5t16 -37.5t-16 -37.5t-39 -15.5v0zM515 151h-28q-12 0 -21 -9t-9 -21t9 -21t21 -9h28q13 0 22 9t9 21t-9 21t-22 9v0zM515 151z
" />
    <glyph glyph-name="jilu" unicode="&#xe659;" 
d="M495 307l301 301q23 23 55 23t55 -23l28 -27q22 -23 22 -55t-22 -55v0l-302 -301l-220 -79zM479 154l132 50l7 7l-82 82l-8 -7l-49 -132v0zM563 321l83 -83l205 206l-82 82l-206 -205v0zM906 554l-27 27q-12 12 -28 12t-27 -12l-28 -27l82 -83l28 28q12 11 12 27.5
t-12 27.5v0zM529 676v-142q0 -16 11.5 -27.5t27.5 -11.5h60l-39 -39h-21q-32 0 -55 23t-23 55v175h-349q-16 0 -27.5 -11.5t-11.5 -27.5v-738q0 -16 11.5 -27t27.5 -11h543q17 0 28 11t11 27v274l37 39v-313q0 -32 -22 -54.5t-54 -22.5h-543q-32 0 -52.5 22.5t-20.5 54.5
v738q0 32 20.5 53.5t52.5 21.5h291h11h20h54l175 -186l-27 -27l-136 144v0zM529 676zM153 7h522v-45h-522v45zM153 195h261v-46h-261v46zM153 368h261v-45h-261v45zM153 548h261v-46h-261v46z" />
    <glyph glyph-name="lishijilu" unicode="&#xe619;" 
d="M511.5 -25q-83.5 0 -159.5 33q-74 31 -130.5 87.5t-87.5 130.5q-32 76 -32 159.5t32 159.5q31 74 87.5 130.5t130.5 87.5q76 33 159.5 33t159.5 -33q74 -31 130.5 -87.5t87.5 -130.5q33 -76 33 -159.5t-33 -159.5q-31 -74 -87.5 -130.5t-130.5 -87.5q-76 -33 -159.5 -33z
M511.5 744q-97.5 0 -180 -48t-130.5 -130.5t-48 -180t48 -180t130.5 -130.5t180 -48t180 48t130.5 130.5t48 180t-48 180t-130.5 130.5t-180 48zM475 651h52v-283h-52v283zM475 420h284v-52h-284v52z" />
    <glyph glyph-name="peisongzhong" unicode="&#xe624;" 
d="M974 540l-216 -41l-106 -326q-14 8 -32 11l107 326v0l7 22l230 38q20 4 22 -11q3 -17 -12 -19zM563 182q-34 -9 -57 -35l-7 -7l-393 133l149 451l197 -67l-24 -75l40 -14l25 76l207 -70l-129 -390zM513 603l-25 -76l-100 35l24 75l-137 47l-129 -391l344 -117
q24 24 56 34l114 344zM334 402l-52 17l149 99l56 -167l-52 18l-36 -103l-101 34zM414 409l22 -8l-22 67l-61 -39l22 -8l-36 -102l39 -13zM144 205l329 -108q-7 -21 -7 -32q-3 0 -4 1l-331 109q-17 5 -11 23q5 13 24 7zM597 151q40 0 68 -28.5t28 -69t-28 -69t-68 -28.5
t-68.5 28.5t-28.5 69t28.5 69t68.5 28.5zM596.5 -15q28.5 0 48.5 20t20 48.5t-20 49t-48.5 20.5t-48.5 -20.5t-20 -49t20 -48.5t48.5 -20zM597 76q9 0 15 -6.5t6 -15.5t-6 -15.5t-15 -6.5t-15.5 6.5t-6.5 15.5t6.5 15.5t15.5 6.5z" />
    <glyph glyph-name="iconfontbaobiao" unicode="&#xe61f;" 
d="M810 28q-10 0 -10 10v606q0 10 -10 10h-60q-10 0 -10 -10v-606q0 -10 -10 -10h-86q-10 0 -10 10v739q0 10 -10 10h-60q-10 0 -10 -10v-739q0 -10 -10 -10h-88q-10 0 -10 10v489q0 10 -10 10h-59q-10 0 -10 -10v-489q0 -10 -10 -10h-61q-10 0 -10 10v366q0 10 -10 10h-60
q-10 0 -10 -10v-366q0 -10 -10 -10h-90q-10 0 -10 -10v-29q0 -10 10 -10h852q10 0 10 10v29q0 10 -10 10h-128v0zM810 28z" />
    <glyph glyph-name="baobiao" unicode="&#xe63d;" 
d="M978 40h-870q-13 0 -22 8.5t-9 20.5v688q0 12 -9 20t-22 8t-22 -8t-9 -20v-717q0 -24 18 -40.5t44 -16.5h901q13 0 22 8t9 20t-9 20.5t-22 8.5v0zM978 40zM170 269h62q18 0 27 14l66 97l94 -195q7 -13 21 -16q12 -3 23 2.5t15 16.5l127 385l93 -281q2 -10 11 -16.5
t20 -6.5h155q4 0 8 1q17 -29 54 -29q26 0 44 16.5t18 40.5t-18 40.5t-44 16.5q-37 0 -54 -29q-4 1 -8 1h-132l-117 352q-4 11 -15 17t-24 2q-8 -2 -14 -8q-4 -5 -6 -11l-133 -401l-84 174q-2 5 -7 9v0.5v0.5h-1q-15 14 -34 6q-10 -4 -15 -13l-86 -128h-46q-13 0 -22 -8.5
t-9 -20.5t9 -20.5t22 -8.5v0zM170 269z" />
    <glyph glyph-name="baobiao1" unicode="&#xe686;" 
d="M512 895q-104 0 -198.5 -40.5t-163 -109t-109 -163t-40.5 -198.5t40.5 -198.5t109 -163t163 -109t198.5 -40.5t198.5 40.5t163 109t109 163t40.5 198.5t-40.5 198.5t-109 163t-163 109t-198.5 40.5zM486 843v-400l-293 272q62 60 140 93q73 31 153 35zM52 384
q0 94 36 179q27 63 70 115l315 -293l-335 -268q-30 41 -50 88q-36 85 -36 179zM837.5 58.5q-63.5 -63.5 -146.5 -98.5q-85 -36 -179 -36t-179 36q-83 35 -146 99q-9 8 -17 18l368 294v472q80 -4 153 -35q83 -35 146.5 -98.5t98.5 -146.5q36 -85 36 -179t-36 -179
q-35 -83 -98.5 -146.5z" />
    <glyph glyph-name="kucun" unicode="&#xe63b;" 
d="M512 384zM761 -128h-4l-2 1l-2 1h-2l-2 2l-1 1l-225 122q-8 5 -11 13q-3 -8 -12 -13l-229 -125l-3 -1l-4 -1h-2h-2l-4 1h-3l-3 2l-227 124q-9 5 -12 15h-1v4v4v301q0 18 16 25l239 113v295q0 17 17 24l244 116v-3q5 0 10 -3l218 -110q16 -6 16 -24v-293v-3q5 0 11 -2
l218 -111q16 -6 16 -24v-309h-2q-3 -10 -12 -15l-229 -125l-3 -1l-4 -1h-2h-2v0zM790 -60l175 95v243l-175 -96v-242v0zM290 -60l174 95v243l-174 -96v-242v0zM736 -58v242l-72 40v-54l-61 29v58l-41 23v-243l174 -95v0zM236 -58v242l-73 40v-54l-60 29v58l-42 23v-243
l175 -95v0zM762 229l171 93l-67 34l-172 -90l68 -37v0zM262 229l171 93l-67 34l-173 -90l69 -37v0zM129 302l170 88l-30 16l-177 -84l37 -20v0zM630 302l170 88l-31 16l-176 -84l37 -20v0zM492 368v242l-73 40v-54l-61 29v58l-41 23v-242l175 -96v0zM546 372l175 96v243
l-175 -96v-243zM517 661l171 96l-67 34l-173 -92l69 -38v0zM397 728l170 90l-41 21l-177 -86l48 -25v0z" />
    <glyph glyph-name="xiugaimima" unicode="&#xe6ab;" 
d="M807 502h-59v79q0 97 -69 166.5t-167 69.5t-167 -69.5t-69 -166.5v-79h-59q-25 0 -42 -17.5t-17 -41.5v-433q0 -24 17 -41.5t42 -17.5h590q25 0 42 17.5t17 41.5v433q0 24 -17 41.5t-42 17.5zM335 581q0 73 52 125t125 52t125 -52t52 -125v-79h-354v79zM807 10h-590v433
h590v-433zM512 118q12 0 21 9t9 21v157q0 12 -9 21t-21 9t-21 -9t-9 -21v-157q0 -12 9 -21t21 -9z" />
    <glyph glyph-name="shangpin" unicode="&#xe615;" horiz-adv-x="1025" 
d="M992 594v-576q0 -49 -32.5 -81.5t-81.5 -32.5h-732q-49 0 -81.5 32.5t-32.5 81.5v576q0 23 9 45q-9 22 -9 42v69q0 49 32.5 81.5t81.5 32.5h732q49 0 81.5 -32.5t32.5 -81.5v-69q0 -20 -9 -42q9 -22 9 -45zM946 750q0 25 -21.5 46.5t-46.5 21.5h-732q-25 0 -46.5 -21.5
t-21.5 -46.5v-69q0 -25 21.5 -46.5t46.5 -21.5h732q25 0 46.5 21.5t21.5 46.5v69zM946 590q-39 -23 -68 -23h-732q-29 0 -68 23v-572q0 -25 21.5 -46.5t46.5 -21.5h732q25 0 46.5 21.5t21.5 46.5v572zM855 430h-46q-11 -114 -98.5 -194.5t-198.5 -80.5q-110 0 -198 81
t-99 194h-46q-12 0 -17.5 5t-5.5 18q0 24 23 22h137q13 0 18 -5t5 -17.5t-5 -17.5t-18 -5h-45q11 -93 81.5 -161t169.5 -68t169.5 68t81.5 161h-45q-13 0 -18 5t-5 17.5t5 17.5t18 5h137q8 0 15.5 -5.5t7.5 -16.5q0 -13 -5.5 -18t-17.5 -5z" />
    <glyph glyph-name="cha" unicode="&#xe614;" 
d="M557 384l394 -394q9 -10 9 -23t-9 -22t-22 -9t-23 9l-394 394l-394 -394q-10 -9 -23 -9t-22 9t-9 22t9 23l394 394l-394 394q-9 10 -9 23t9 22t22 9t23 -9l394 -394l394 394q10 9 23 9t22 -9t9 -22t-9 -23z" />
    <glyph glyph-name="gaishan" unicode="&#xe661;" 
d="M732 826q88 0 125 -56q20 -29 26 -69t6 -98v-27h-49v27v13.5v16v14.5t-0.5 15.5t-1.5 14t-2 15t-2.5 12.5t-4 12t-5.5 10q-14 21 -37 34.5t-44 13.5h-527q-20 0 -42.5 -13t-35.5 -33q-24 -34 -24 -125v-438q0 -83 22 -117q15 -22 38 -36t44 -14h519q20 0 42 14t36 36
q25 37 25 117v27h49v-27q0 -106 -36 -161l-25 30l25 -30q-21 -30 -54 -46t-67 -16h-509q-35 0 -69 15t-54 46l27 29l-27 -29q-1 2 -2 2q-33 52 -33 160v438q0 113 34 164q1 1 1 2q20 29 54 43t69 14h509v0v0zM299 593q-12 0 -20 -10t-8 -24.5t8 -24.5t20 -10h332
q11 0 19.5 10t8.5 24.5t-8.5 24.5t-19.5 10h-332v0v0v0v0v0zM296 417q-12 0 -20 -10.5t-8 -25t8 -24.5t20 -10h236q12 0 20 10t8 24.5t-8 25t-20 10.5h-236v0v0v0v0v0zM297 238q-11 0 -19 -10.5t-8 -24.5t8 -24.5t19 -10.5h138q11 0 19 10.5t8 24.5t-8 24.5t-19 10.5h-138v0
v0v0v0v0zM886 530q5 2 12 3t23.5 -1.5t26 -13t11.5 -25t-1 -23.5l-3 -10l-286 -248l-68 70l285 248v0zM586 269l68 -70l-115 -35z" />
    <glyph glyph-name="zhuxiao" unicode="&#xe604;" 
d="M513 -61q-109 0 -201.5 54t-146.5 146.5t-54 201.5q0 112 57.5 207t155.5 148q9 4 17.5 1.5t13 -10.5t2 -17t-10.5 -13q-88 -47 -139 -132t-51 -184q0 -97 48 -179t130 -130t179 -48t179.5 48t130 130t47.5 179q0 99 -50.5 183.5t-137.5 131.5q-9 5 -11.5 13.5t2 17
t13.5 11t17 -1.5q98 -53 155 -148.5t57 -206.5q0 -109 -54 -201.5t-146.5 -146.5t-201.5 -54v0v0zM513 319q-9 0 -15.5 6.5t-6.5 15.5v469q0 9 6.5 15.5t15.5 6.5t15.5 -6.5t6.5 -15.5v-469q0 -9 -6.5 -15.5t-15.5 -6.5v0v0zM513 319z" />
    <glyph glyph-name="yeji" unicode="&#xe6a9;" 
d="M891 863h-758q-41 0 -70.5 -29.5t-29.5 -70.5v-758q0 -41 29.5 -70.5t70.5 -29.5h758q41 0 70.5 29.5t29.5 70.5v758q0 41 -29.5 70.5t-70.5 29.5zM928 5q0 -15 -11 -26t-26 -11h-758q-15 0 -26 11t-11 26v758q0 15 11 26t26 11h758q15 0 26 -11t11 -26v-758zM822 153
h-620q-13 0 -22 -9t-9 -22t9 -22.5t22 -9.5h620q13 0 22 9.5t9 22.5t-9 22t-22 9zM852 654q0 3 -1 5t-3 5l-3 4l-2 1q-2 2 -4 3l-6 4q-2 0 -6 1q-3 1 -5 1h-186q-13 0 -22 -9.5t-9 -22.5t9 -22t22 -9h116l-211 -234l-186 172l-176 -196q-9 -9 -8.5 -22t10.5 -22q9 -8 21 -8
q14 0 23 10l134 149l186 -172l246 273v-125q0 -13 9 -22.5t22 -9.5t22 9.5t9 22.5v207q0 3 -1 7z" />
    <glyph glyph-name="renwu" unicode="&#xe68e;" 
d="M207.5 542q12.5 0 21 8.5t8.5 20.5t-8.5 21t-21 9t-21 -9t-8.5 -21t8.5 -20.5t21 -8.5zM295 571q0 12 9 21t21 9h313q12 0 20.5 -9t8.5 -21t-8.5 -20.5t-20.5 -8.5h-313q-13 0 -21.5 8.5t-8.5 20.5zM207.5 346q12.5 0 21 9t8.5 21t-8.5 20.5t-21 8.5t-21 -8.5t-8.5 -20.5
t8.5 -21t21 -9zM295 375.5q0 12.5 9 21t21 8.5h313q12 0 20.5 -8.5t8.5 -20.5t-8.5 -21t-20.5 -9h-313q-13 0 -21.5 8.5t-8.5 21zM207.5 151q12.5 0 21 8.5t8.5 20.5t-8.5 21t-21 9t-21 -9t-8.5 -21t8.5 -20.5t21 -8.5zM295 180q0 12 9 21t21 9h78q12 0 20.5 -9t8.5 -21
t-8.5 -20.5t-20.5 -8.5h-78q-12 0 -21 8.5t-9 20.5zM550 806q0 12 8.5 20.5t20.5 8.5t20.5 -8.5t8.5 -20.5v-98q0 -12 -8.5 -20.5t-20.5 -8.5t-20.5 8.5t-8.5 20.5v98zM256 806q0 12 8.5 20.5t21 8.5t21 -8.5t8.5 -20.5v-98q0 -12 -8.5 -20.5t-21 -8.5t-21 8.5t-8.5 20.5v98
zM784 92v-117q0 -16 -11.5 -27.5t-27.5 -11.5h-626q-16 0 -27.5 11.5t-11.5 27.5v782q0 16 11.5 27.5t27.5 11.5h98v-59h-58q-9 0 -14.5 -5.5t-5.5 -13.5v-704q0 -8 5.5 -13.5t14.5 -5.5h547q8 0 13.5 5.5t5.5 13.5v26q9 2 15 8zM354 796h156v-59h-156v59zM647 796h98
q16 0 27.5 -11.5t11.5 -27.5v-418l-59 -58v437q0 8 -5.5 13.5t-13.5 5.5h-59v59zM690 86q4 2 7 5l235 235q9 9 9 21t-9 20.5t-21 8.5t-20 -9l-224 -224l-77 77q-8 9 -20.5 9t-21 -9t-8.5 -21t9 -20l97 -97q8 -9 20 -9t21 9q2 2 3 4z" />
    <glyph glyph-name="gengduo1" unicode="&#xe67b;" 
d="M557 -8q-13 0 -22.5 9.5t-9.5 22.5t10 23l337 337l-337 337q-10 10 -10 23t9.5 22.5t22.5 9.5t23 -9l360 -360q9 -10 9 -23t-9 -23l-360 -360q-10 -9 -23 -9z" />
    <glyph glyph-name="jingbao" unicode="&#xe60b;" 
d="M959 361h-115v20q0 16 -1 32h116q11 0 18.5 -7.5t7.5 -18.5t-7.5 -18.5t-18.5 -7.5zM770 582q-17 20 -38 37l85 84q8 8 19 8t18.5 -8t7.5 -19t-8 -19zM792 64h61q11 0 19 -7.5t8 -18.5t-8 -19t-19 -8h-651q-11 0 -19 8t-8 19t8 18.5t19 7.5h61v314q0 109 77.5 186t187 77
t187 -77t77.5 -186v-314zM739 361q0 87 -62 148.5t-149.5 61.5t-149.5 -61.5t-62 -148.5v-297h423v297zM532 473q8 7 19 7t18.5 -7.5t7.5 -18.5t-7 -18l-58 -57h95q11 0 18.5 -8t7.5 -19q0 -5 -2 -10q5 -16 -6 -27l-104 -103q-8 -8 -19 -8t-19.5 8t-8.5 19t8 19l77 76h-93
q-6 0 -12 3q-13 -1 -21 8q-8 7 -8 18t8 19zM501 692v123q0 11 8 19t19 8t18.5 -8t7.5 -19v-123q-16 1 -26 1t-27 -1zM290 586l-86 85q-8 8 -8 19t8 18.5t18.5 7.5t18.5 -8l86 -85q-19 -16 -37 -37zM211 381v-20h-115q-11 0 -18.5 7.5t-7.5 18.5t7.5 18.5t18.5 7.5h116
q-1 -16 -1 -32z" />
    <glyph glyph-name="kaohebaobiao" unicode="&#xe616;" 
d="M803 693h-20q-9 0 -15.5 -6.5t-6.5 -15.5t6.5 -16t15.5 -7h20q9 0 16 -5t7 -12v-593q0 -7 -6.5 -12t-16.5 -5h-582q-10 0 -16.5 5t-6.5 12v594q0 6 6.5 11t16.5 5h29q9 0 15.5 7t6.5 16t-6.5 15.5t-15.5 6.5h-29q-28 0 -48 -18t-20 -43v-594q0 -26 20 -44t48 -18h582
q28 0 48 18t20 44v593q0 26 -20 44t-48 18zM346 649h345q10 0 16.5 6.5t6.5 16t-6.5 16t-16.5 6.5h-46q-14 41 -49 67t-79.5 26t-79.5 -26t-49 -67h-42q-9 0 -15.5 -6.5t-6.5 -16t6.5 -16t15.5 -6.5zM516.5 743q25.5 0 47 -13.5t32.5 -35.5h-159q11 22 32.5 35.5t47 13.5z
M334 303q6 0 10 4l127 127l49 -49l167 167l36 -36v92h-93l36 -36l-146 -146l-49 49l-147 -147q-11 -11 0 -21q4 -4 10 -4v0zM319 214h424q8 0 13 5t5 12.5t-5 13t-13 5.5h-424q-7 0 -12.5 -5.5t-5.5 -13t5.5 -12.5t12.5 -5zM319 124h335q7 0 12.5 5.5t5.5 12.5t-5.5 12.5
t-12.5 5.5h-335q-7 0 -12.5 -5.5t-5.5 -12.5t5.5 -12.5t12.5 -5.5z" />
    <glyph glyph-name="fangjian" unicode="&#xe620;" 
d="M500 -128q-21 0 -40 11l-256 149q-1 0 -1.5 0.5t-1.5 0.5q-72 35 -72 81v704v4q2 43 40 64q40 21 79 -1l256 -149l1 -0.5l1 -0.5q72 -35 72 -81v-708q-2 -43 -40 -64q-19 -10 -38 -10zM207.5 851q-8.5 0 -16.5 -4q-16 -9 -17 -27v-706q0 -8 13.5 -19.5t33.5 -21.5
q2 -1 5 -3l256 -149q17 -9 34 0t18 27v706q0 8 -14 19.5t-33 21.5q-3 1 -6 3l-256 149q-9 4 -17.5 4zM752 24h-191q-9 0 -15.5 6.5t-6.5 16t6.5 16t15.5 6.5h191v0q16 0 27.5 11.5t11.5 27.5v0v704q0 16 -11.5 27.5t-27.5 11.5h-530q-9 0 -15.5 6.5t-6.5 16t6.5 16t15.5 6.5
h529q35 0 59.5 -24.5t24.5 -59.5v-704q0 -35 -24.5 -59.5t-58.5 -24.5zM452 208h-4l-17 5q-13 0 -22 10t-9 23v232q0 14 10 23.5t23 9.5h4l17 -4q13 -1 22 -10.5t9 -23.5v-232q0 -14 -10 -23.5t-23 -9.5zM432 481q-2 -1 -2 -3v-232q0 -4 3 -4h4l16 -4q2 1 2 3v233q0 3 -3 3
q-1 0 -4 1z" />
    <glyph glyph-name="fangjian1" unicode="&#xe63a;" 
d="M853 64v640q0 35 -25 60t-60 25h-512q-35 0 -60 -25t-25 -60v-640h-43v-85h768v85h-43zM256 64v640h403l-318 -85v-470h2l312 -85h-399zM768 124l-341 94v335l341 91v-520z" />
    <glyph glyph-name="shangpin1" unicode="&#xe60d;" 
d="M511 -128h-1h-1h-1h-1l-1 1v0h-1l-1 1v0l-3 1l-418 228q-10 5 -10 15v0v556q0 12 11 16l2 1l432 203q4 2 8 2v0v0q4 0 8 -2l405 -204q12 -4 12 -16v0v-555q0 -11 -9 -16l-424 -229l-1 -1h-1v0v0h-1h-1l-1 -1h-1h-1zM109 129l385 -210v516l-196 107v-103l-51 24v106
l-138 75v-515zM319 569l193 -104l383 208l-190 96zM130 673l135 -74l384 198l-124 62z" />
    <glyph glyph-name="gengduo2" unicode="&#xe602;" 
d="M119 403l393 -393l393 393q9 10 22.5 10t23 -9.5t9.5 -23t-9 -22.5l-412 -412q-11 -11 -26 -9q-16 -2 -28 9l-412 412q-9 9 -9 22.5t9.5 23t23 9.5t22.5 -10z" />
    <glyph glyph-name="jiesuan" unicode="&#xe65c;" 
d="M833 605l10 31q12 35 -5 68q-16 33 -51 45l-357 118q-35 12 -68 -4.5t-45 -52.5q-2 -5 -1 -11l-4 1q-36 9 -67 -10q-32 -19 -41 -55l-34 -138q-30 -15 -48.5 -44t-18.5 -64v-471q0 -50 36 -85.5t86 -35.5h574q50 0 86 35.5t36 85.5v471q0 41 -25 73t-63 43zM372 792
q4 13 16 19t24 2l356 -118q13 -4 19 -16t2 -25l-15 -44h-30q5 33 -12 61q-19 31 -55 40l-308 75q1 3 3 6zM260 721q3 13 14.5 20t24.5 4l364 -89q13 -4 20 -15t4 -25q-1 -3 -1 -6h-453zM863 18q0 -26 -19 -45t-45 -19h-574q-26 0 -45 19t-19 45v471q0 26 19 45t45 19h574
q26 0 45 -19t19 -45v-471zM587 400l-61 -118q-10 -20 -14 -29q-6 14 -13 27l-64 120h-53l88 -162h-71v-43h90v-24h-90v-40h90v-74h48v74h89v40h-89v24h89v43h-71l88 162h-56z" />
    <glyph glyph-name="yewu" unicode="&#xe62a;" 
d="M508 846q37 0 69.5 -15.5t51.5 -38.5t33.5 -45.5t19.5 -38.5l6 -16h272q2 -1 6.5 -2t6.5 -1q23 -10 37 -32q4 -10 4 -52v-484q0 -12 1.5 -47.5t1.5 -57.5t-3.5 -47.5t-11.5 -36.5q-8 -10 -22.5 -15t-26.5 -6t-37 -1h-856q-16 5 -26.5 14.5t-16 19.5t-7.5 28.5t-2 31
t1 37.5t1 38v515q0 4 -1 17.5t-0.5 23t2.5 15.5q6 15 16 24.5t28.5 13t32 4.5t41.5 1h9h199q1 6 4.5 16.5t17.5 37t31.5 46.5t49 36.5t68.5 16.5zM385 693h255q-2 4 -5.5 11.5t-15.5 26t-26 32.5t-37 25.5t-48 11.5t-46.5 -11t-35 -27t-23.5 -31.5t-14 -26.5zM57 418h301
q0 36 17 49q6 4 12 7t15 5t15.5 3t18 1.5t17.5 0.5h20.5h19.5q12 0 34.5 1t35.5 1t32 -1.5t30 -5.5t22 -11t15.5 -19.5t4.5 -29.5h302v167q0 4 0.5 13.5t0 14.5t-1.5 12t-3.5 11t-7.5 5q-5 4 -15 5t-26 0t-19 -1h-751q-36 2 -81 -4l-8 -10v-214zM414 435q-6 -5 -7 -8
q-2 -3 -2.5 -15.5t0.5 -30t1 -19.5q4 -3 9.5 -5t13.5 -2.5t12 -1t16.5 0t15.5 0.5q67 -4 141 1q8 13 6 72l-1 1q0 1 -1 2q-3 3 -6 4q-5 2 -14.5 2.5t-23.5 -0.5t-17 -1h-143zM57 371v-269q0 -13 -1.5 -43t-1 -52.5t3.5 -40.5q4 -2 8 -3.5t10 -2.5t10 -1.5t11.5 -0.5
t11.5 -0.5t13 0t12 0.5h750q35 -3 78 3q5 9 6.5 28.5t0.5 53.5t-1 37v291h-302q1 -18 -4.5 -30.5t-16.5 -19.5t-22.5 -11t-30 -5t-32.5 -0.5t-36 1t-35 0.5h-24.5h-26.5t-21.5 1t-22.5 4t-16 8q-21 15 -20 52h-301z" />
  </font>
</defs>
</svg>
